<mxfile host="app.diagrams.net" agent="Mozilla/5.0 (X11; Ubuntu; Linux x86_64; rv:132.0) Gecko/20100101 Firefox/132.0" version="24.8.3">
  <diagram name="Page-1" id="zU0PNHGNBiE9gmbVjhxK">
    <mxGraphModel dx="2012" dy="795" grid="1" gridSize="10" guides="1" tooltips="1" connect="1" arrows="1" fold="1" page="1" pageScale="1" pageWidth="850" pageHeight="1100" background="#ffffff" math="0" shadow="0">
      <root>
        <mxCell id="0" />
        <mxCell id="1" parent="0" />
        <mxCell id="Csin29PV8eFVI046gh1U-2" value="1. ROS2 Humble Container" style="swimlane;startSize=40;labelBackgroundColor=none;fillColor=#182e3e;strokeColor=#182e3e;fontColor=#FFFFFF;fillStyle=solid;swimlaneFillColor=none;gradientColor=none;rounded=0;glass=0;" vertex="1" parent="1">
          <mxGeometry x="90" y="110" width="230" height="120" as="geometry" />
        </mxCell>
        <mxCell id="Csin29PV8eFVI046gh1U-3" value="IDS Kamera ROS Node" style="text;html=1;align=center;verticalAlign=middle;resizable=0;points=[];autosize=1;strokeColor=none;fillColor=none;labelBackgroundColor=default;fontColor=#000000;labelBorderColor=none;" vertex="1" parent="Csin29PV8eFVI046gh1U-2">
          <mxGeometry x="40" y="60" width="150" height="30" as="geometry" />
        </mxCell>
        <mxCell id="Csin29PV8eFVI046gh1U-4" value="ROS2 Foxy lokal auf dem Rechner" style="swimlane;startSize=40;labelBackgroundColor=none;fillColor=#182E3E;strokeColor=#182e3e;fontColor=#FFFFFF;fillStyle=solid;" vertex="1" parent="1">
          <mxGeometry x="520" y="310" width="230" height="120" as="geometry" />
        </mxCell>
        <mxCell id="Csin29PV8eFVI046gh1U-5" value="ROS-ROS2-Bridge" style="text;html=1;align=center;verticalAlign=middle;resizable=0;points=[];autosize=1;strokeColor=none;fillColor=none;labelBackgroundColor=default;fontColor=#000000;labelBorderColor=none;" vertex="1" parent="Csin29PV8eFVI046gh1U-4">
          <mxGeometry x="55" y="60" width="120" height="30" as="geometry" />
        </mxCell>
        <mxCell id="Csin29PV8eFVI046gh1U-7" value="2. ROS2 Humble Container" style="swimlane;startSize=40;labelBackgroundColor=none;fillColor=#182E3E;strokeColor=#182e3e;fontColor=#ffffff;labelBorderColor=none;fillStyle=solid;" vertex="1" parent="1">
          <mxGeometry x="520" y="110" width="230" height="120" as="geometry" />
        </mxCell>
        <mxCell id="Csin29PV8eFVI046gh1U-8" value="&lt;div&gt;AprilTag-Detektion&lt;/div&gt;&lt;div&gt;&amp;nbsp;Visualisierung in RViz&lt;/div&gt;&lt;div&gt;&lt;br&gt;&lt;/div&gt;" style="text;html=1;align=center;verticalAlign=middle;resizable=0;points=[];autosize=1;strokeColor=none;fillColor=none;labelBackgroundColor=default;fontColor=#000000;labelBorderColor=none;textShadow=0;" vertex="1" parent="Csin29PV8eFVI046gh1U-7">
          <mxGeometry x="45" y="45" width="140" height="60" as="geometry" />
        </mxCell>
        <mxCell id="Csin29PV8eFVI046gh1U-10" value="ROS Noetic lokal auf dem Rechner" style="swimlane;startSize=40;labelBackgroundColor=none;fillColor=#182E3E;strokeColor=#182e3e;fontColor=#FFFFFF;fillStyle=solid;" vertex="1" parent="1">
          <mxGeometry x="90" y="310" width="230" height="120" as="geometry" />
        </mxCell>
        <mxCell id="Csin29PV8eFVI046gh1U-11" value="&lt;div&gt;AprilTag Positionen&lt;/div&gt;&lt;div&gt;Visualisierung in RViz&lt;br&gt;&lt;/div&gt;" style="text;html=1;align=center;verticalAlign=middle;resizable=0;points=[];autosize=1;strokeColor=none;fillColor=none;labelBackgroundColor=default;fontColor=#000000;labelBorderColor=none;" vertex="1" parent="Csin29PV8eFVI046gh1U-10">
          <mxGeometry x="45" y="55" width="140" height="40" as="geometry" />
        </mxCell>
        <mxCell id="Csin29PV8eFVI046gh1U-13" value="" style="endArrow=classic;html=1;rounded=0;strokeColor=#23445D;exitX=1;exitY=0.5;exitDx=0;exitDy=0;entryX=0;entryY=0.5;entryDx=0;entryDy=0;" edge="1" parent="1" source="Csin29PV8eFVI046gh1U-2" target="Csin29PV8eFVI046gh1U-7">
          <mxGeometry width="50" height="50" relative="1" as="geometry">
            <mxPoint x="330" y="410" as="sourcePoint" />
            <mxPoint x="380" y="360" as="targetPoint" />
          </mxGeometry>
        </mxCell>
        <mxCell id="Csin29PV8eFVI046gh1U-14" value="" style="endArrow=classic;html=1;rounded=0;strokeColor=#23445D;exitX=0.5;exitY=1;exitDx=0;exitDy=0;entryX=0.5;entryY=0;entryDx=0;entryDy=0;" edge="1" parent="1" source="Csin29PV8eFVI046gh1U-7" target="Csin29PV8eFVI046gh1U-4">
          <mxGeometry width="50" height="50" relative="1" as="geometry">
            <mxPoint x="330" y="410" as="sourcePoint" />
            <mxPoint x="380" y="360" as="targetPoint" />
          </mxGeometry>
        </mxCell>
        <mxCell id="Csin29PV8eFVI046gh1U-15" value="" style="endArrow=classic;html=1;rounded=0;strokeColor=#23445D;exitX=0;exitY=0.5;exitDx=0;exitDy=0;entryX=1;entryY=0.5;entryDx=0;entryDy=0;" edge="1" parent="1" source="Csin29PV8eFVI046gh1U-4" target="Csin29PV8eFVI046gh1U-10">
          <mxGeometry width="50" height="50" relative="1" as="geometry">
            <mxPoint x="330" y="410" as="sourcePoint" />
            <mxPoint x="380" y="360" as="targetPoint" />
          </mxGeometry>
        </mxCell>
      </root>
    </mxGraphModel>
  </diagram>
</mxfile>
